<svg width="14" height="20" viewBox="0 0 14 20" fill="none" xmlns="http://www.w3.org/2000/svg">
<path d="M6.575 19.575C6.44167 19.575 6.31667 19.5542 6.2 19.5125C6.08333 19.4708 5.975 19.4 5.875 19.3L0.275 13.7C0.0916667 13.5167 0 13.2833 0 13C0 12.7167 0.0916667 12.4833 0.275 12.3C0.475 12.1 0.7125 12.0042 0.9875 12.0125C1.2625 12.0208 1.49167 12.1167 1.675 12.3L5.575 16.175V1C5.575 0.716667 5.67083 0.479167 5.8625 0.2875C6.05417 0.0958333 6.29167 0 6.575 0C6.85833 0 7.09583 0.0958333 7.2875 0.2875C7.47917 0.479167 7.575 0.716667 7.575 1V16.175L11.45 12.3C11.65 12.1 11.8875 12 12.1625 12C12.4375 12 12.675 12.1 12.875 12.3C13.0583 12.5 13.15 12.7375 13.15 13.0125C13.15 13.2875 13.0583 13.5167 12.875 13.7L7.275 19.3C7.175 19.4 7.06667 19.4708 6.95 19.5125C6.83333 19.5542 6.70833 19.575 6.575 19.575Z" fill="#AEFF00"/>
</svg>
