<svg width="44" height="38" viewBox="0 0 44 38" fill="none" xmlns="http://www.w3.org/2000/svg">
<path d="M22 37.45C21.7823 37.45 21.5695 37.425 21.3617 37.375C21.1539 37.325 20.9667 37.2333 20.8 37.1C19.3333 36.1333 17.7739 35.375 16.1218 34.825C14.4696 34.275 12.7623 34 11 34C9.6 34 8.225 34.1833 6.875 34.55C5.525 34.9167 4.23333 35.4333 3 36.1C2.3 36.4667 1.625 36.45 0.975 36.05C0.325 35.65 0 35.0667 0 34.3V10.2C0 9.83333 0.0916667 9.48333 0.275 9.15C0.458333 8.81667 0.733333 8.56667 1.1 8.4C2.63333 7.6 4.23333 7 5.9 6.6C7.56667 6.2 9.26667 6 11 6C12.9333 6 14.825 6.25 16.675 6.75C18.525 7.25 20.3 8 22 9V34.3C23.7 33.2 25.4833 32.375 27.35 31.825C29.2167 31.275 31.1 31 33 31C34.2 31 35.5083 31.1167 36.925 31.35C38.3417 31.5833 39.7 32.0667 41 32.8V7.55C41.3295 7.675 41.6536 7.80625 41.9722 7.94375C42.2907 8.08125 42.6 8.23333 42.9 8.4C43.2333 8.6 43.5 8.86128 43.7 9.18385C43.9 9.50645 44 9.84517 44 10.2V34.3C44 35.0667 43.675 35.65 43.025 36.05C42.375 36.45 41.7 36.4667 41 36.1C39.7667 35.4333 38.475 34.9167 37.125 34.55C35.775 34.1833 34.4 34 33 34C31.2377 34 29.5304 34.275 27.8783 34.825C26.2261 35.375 24.6667 36.1333 23.2 37.1C23.0333 37.2333 22.8461 37.325 22.6383 37.375C22.4305 37.425 22.2177 37.45 22 37.45ZM26.25 28.55C25.9833 28.75 25.7083 28.7917 25.425 28.675C25.1417 28.5583 25 28.3333 25 28V12.3C25 12.2048 25.0167 12.1155 25.05 12.0322C25.0833 11.9488 25.1333 11.8714 25.2 11.8L36.7 0.3C36.9333 0.0666671 37.2083 0.00903338 37.525 0.1271C37.8417 0.245133 38 0.469434 38 0.8V18C38 18.1 37.9762 18.1967 37.9285 18.29C37.8809 18.3833 37.8214 18.47 37.75 18.55L26.25 28.55ZM19 32.8V10.85C17.8667 10.2167 16.55 9.75 15.05 9.45C13.55 9.15 12.2 9 11 9C9.43333 9 7.975 9.16667 6.625 9.5C5.275 9.83333 4.06667 10.2589 3 10.7767V32.8C4.16667 32.2333 5.425 31.7917 6.775 31.475C8.125 31.1583 9.54167 31 11.025 31C12.5083 31 13.9167 31.1583 15.25 31.475C16.5833 31.7917 17.8333 32.2333 19 32.8Z" fill="#aeff00"/>
</svg>
