<svg width="40" height="40" viewBox="0 0 40 40" fill="none" xmlns="http://www.w3.org/2000/svg">
<path d="M13.6887 24.85C12.9296 24.85 12.2917 24.5879 11.775 24.0638C11.2583 23.5396 11 22.8979 11 22.1388C11 21.3796 11.2621 20.7417 11.7863 20.225C12.3105 19.7083 12.9521 19.45 13.7113 19.45C14.4704 19.45 15.1083 19.7121 15.625 20.2363C16.1417 20.7605 16.4 21.4021 16.4 22.1613C16.4 22.9204 16.1379 23.5583 15.6137 24.075C15.0895 24.5917 14.4479 24.85 13.6887 24.85ZM26.3388 24.85C25.5796 24.85 24.9417 24.5879 24.425 24.0638C23.9083 23.5396 23.65 22.8979 23.65 22.1388C23.65 21.3796 23.9121 20.7417 24.4362 20.225C24.9604 19.7083 25.6021 19.45 26.3612 19.45C27.1204 19.45 27.7583 19.7121 28.275 20.2363C28.7917 20.7605 29.05 21.4021 29.05 22.1613C29.05 22.9204 28.7879 23.5583 28.2638 24.075C27.7396 24.5917 27.0979 24.85 26.3388 24.85ZM20 37C24.7458 37 28.7656 35.3509 32.0594 32.0526C35.3531 28.7544 37 24.7291 37 19.9768C37 19.1256 36.9333 18.2833 36.8 17.45C36.6667 16.6167 36.5 15.85 36.3 15.15C35.6333 15.3167 34.9123 15.4333 34.1369 15.5C33.3615 15.5667 32.5492 15.6 31.7 15.6C28.4628 15.6 25.4035 14.9333 22.5221 13.6C19.6407 12.2667 17.1833 10.3667 15.15 7.9C14.0167 10.6 12.3917 12.9583 10.275 14.975C8.15833 16.9917 5.73333 18.55 3 19.65V20C3 24.7458 4.64687 28.7656 7.9406 32.0594C11.2344 35.3531 15.2542 37 20 37ZM20 40C17.2333 40 14.6333 39.475 12.2 38.425C9.76667 37.375 7.65 35.95 5.85 34.15C4.05 32.35 2.625 30.2333 1.575 27.8C0.525 25.3667 0 22.7667 0 20C0 17.2333 0.525 14.6333 1.575 12.2C2.625 9.76667 4.05 7.65 5.85 5.85C7.65 4.05 9.76667 2.625 12.2 1.575C14.6333 0.525 17.2333 0 20 0C22.7667 0 25.3667 0.525 27.8 1.575C30.2333 2.625 32.35 4.05 34.15 5.85C35.95 7.65 37.375 9.76667 38.425 12.2C39.475 14.6333 40 17.2333 40 20C40 22.7667 39.475 25.3667 38.425 27.8C37.375 30.2333 35.95 32.35 34.15 34.15C32.35 35.95 30.2333 37.375 27.8 38.425C25.3667 39.475 22.7667 40 20 40ZM15.4 3.65C18.3333 7.08333 21.0417 9.43333 23.525 10.7C26.0083 11.9667 28.7333 12.6 31.7 12.6C32.5 12.6 33.1333 12.5833 33.6 12.55C34.0667 12.5167 34.5833 12.4167 35.15 12.25C33.65 9.55 31.6083 7.33333 29.025 5.6C26.4417 3.86667 23.4333 3 20 3C19.1 3 18.25 3.06667 17.45 3.2C16.65 3.33333 15.9667 3.48333 15.4 3.65ZM3.45 16.1C5.05 15.5 6.875 14.1417 8.925 12.025C10.975 9.90833 12.4333 7.35 13.3 4.35C10.4 5.65 8.20833 7.30833 6.725 9.325C5.24167 11.3417 4.15 13.6 3.45 16.1Z" fill="#aeff00"/>
</svg>
