<svg width="32" height="42" viewBox="0 0 32 42" fill="none" xmlns="http://www.w3.org/2000/svg">
<path d="M15.9902 41.25C15.6634 41.25 15.3514 41.2 15.0543 41.1C14.7571 41 14.4724 40.85 14.2 40.65L1.2 30.9C0.825 30.625 0.53125 30.275 0.31875 29.85C0.10625 29.425 0 28.975 0 28.5V3C0 2.2 0.3 1.5 0.9 0.9C1.5 0.3 2.2 0 3 0H29C29.8 0 30.5 0.3 31.1 0.9C31.7 1.5 32 2.2 32 3V28.5C32 28.975 31.8938 29.425 31.6813 29.85C31.4688 30.275 31.175 30.625 30.8 30.9L17.8 40.65C17.5235 40.85 17.2344 41 16.9328 41.1C16.6312 41.2 16.317 41.25 15.9902 41.25ZM16 38.25L29 28.25V3H3V28.25L16 38.25ZM13.85 21.8L9.95 17.9C9.65 17.6 9.3 17.45 8.9 17.45C8.5 17.45 8.15 17.5935 7.85 17.8805C7.55 18.1935 7.4 18.55 7.4 18.95C7.4 19.35 7.55 19.7 7.85 20L12.85 24.95C13.15 25.25 13.5 25.4 13.9 25.4C14.3 25.4 14.65 25.25 14.95 24.95L24.15 15.75C24.45 15.45 24.5917 15.1 24.575 14.7C24.5583 14.3 24.4065 13.95 24.1195 13.65C23.8065 13.35 23.45 13.2 23.05 13.2C22.65 13.2 22.3 13.35 22 13.65L13.85 21.8ZM16 3H3H29H16Z" fill="#aeff00"/>
</svg>
